<svg xmlns="http://www.w3.org/2000/svg" height="512" viewBox="0 0 480 480" width="512"><g id="Layer_2" data-name="Layer 2"><g id="Vietnam"><path d="m480 240c0 132.51-107.39 239.94-239.89 240h-2.59a242.26 242.26 0 0 1 -34.74-2.87 236 236 0 0 1 -27.9-6.06 240.08 240.08 0 0 1 -174.88-231.07c0-132.53 107.42-240 240-240h.11a239.26 239.26 0 0 1 174.34 75.17 239.79 239.79 0 0 1 65.55 164.83z" fill="#da251d"/><path d="m252.13 165.81 11.7 36a12.77 12.77 0 0 0 12.17 8.83h37.87c12.36 0 17.49 15.81 7.5 23.08l-30.68 22.28a12.75 12.75 0 0 0 -4.63 14.26l11.7 36c3.82 11.76-9.63 21.53-19.63 14.27l-30.63-22.28a12.76 12.76 0 0 0 -15 0l-30.63 22.26c-10 7.26-23.45-2.51-19.63-14.27l11.7-36a12.75 12.75 0 0 0 -4.63-14.24l-30.64-22.25c-10-7.27-4.86-23.08 7.5-23.08h37.83a12.77 12.77 0 0 0 12.13-8.81l11.7-36c3.86-11.8 20.48-11.8 24.3-.05z" fill="#ff0"/></g></g></svg>